<svg width="800" height="400" viewBox="0 0 800 400" xmlns="http://www.w3.org/2000/svg">
  <!-- Background gradient -->
  <defs>
    <linearGradient id="bgGradient3" x1="50%" y1="0%" x2="50%" y2="100%">
      <stop offset="0%" style="stop-color:#0f1729;stop-opacity:1" />
      <stop offset="50%" style="stop-color:#1a1f3a;stop-opacity:1" />
      <stop offset="100%" style="stop-color:#2d3a5a;stop-opacity:1" />
    </linearGradient>
    <radialGradient id="accentGlow3" cx="50%" cy="50%">
      <stop offset="0%" style="stop-color:#00d9ff;stop-opacity:0.12" />
      <stop offset="100%" style="stop-color:#c000ff;stop-opacity:0.08" />
    </radialGradient>
  </defs>

  <!-- Background -->
  <rect width="800" height="400" fill="url(#bgGradient3)" />
  
  <!-- Accent glow overlay -->
  <rect width="800" height="400" fill="url(#accentGlow3)" />

  <!-- Dense starfield -->
  <circle cx="60" cy="40" r="1.2" fill="#ffffff" opacity="0.6" />
  <circle cx="160" cy="80" r="0.8" fill="#ffffff" opacity="0.5" />
  <circle cx="240" cy="50" r="1.4" fill="#ffffff" opacity="0.8" />
  <circle cx="340" cy="120" r="1" fill="#ffffff" opacity="0.6" />
  <circle cx="440" cy="60" r="1.1" fill="#ffffff" opacity="0.7" />
  <circle cx="520" cy="100" r="0.9" fill="#ffffff" opacity="0.5" />
  <circle cx="620" cy="80" r="1.3" fill="#ffffff" opacity="0.8" />
  <circle cx="720" cy="140" r="1" fill="#ffffff" opacity="0.6" />
  <circle cx="780" cy="60" r="1.2" fill="#ffffff" opacity="0.7" />
  
  <circle cx="100" cy="200" r="1" fill="#ffffff" opacity="0.6" />
  <circle cx="200" cy="170" r="1.3" fill="#ffffff" opacity="0.8" />
  <circle cx="300" cy="220" r="0.9" fill="#ffffff" opacity="0.5" />
  <circle cx="400" cy="200" r="1.5" fill="#ffffff" opacity="0.8" />
  <circle cx="500" cy="240" r="1.1" fill="#ffffff" opacity="0.7" />
  <circle cx="600" cy="190" r="1" fill="#ffffff" opacity="0.6" />
  <circle cx="700" cy="220" r="1.2" fill="#ffffff" opacity="0.7" />
  <circle cx="750" cy="170" r="0.8" fill="#ffffff" opacity="0.5" />
  
  <circle cx="140" cy="310" r="1.2" fill="#ffffff" opacity="0.7" />
  <circle cx="260" cy="340" r="1" fill="#ffffff" opacity="0.6" />
  <circle cx="380" cy="290" r="1.4" fill="#ffffff" opacity="0.8" />
  <circle cx="480" cy="360" r="1.1" fill="#ffffff" opacity="0.7" />
  <circle cx="580" cy="320" r="0.9" fill="#ffffff" opacity="0.5" />
  <circle cx="680" cy="350" r="1.3" fill="#ffffff" opacity="0.8" />
  <circle cx="780" cy="310" r="1" fill="#ffffff" opacity="0.6" />
</svg>
